<?xml version="1.0" encoding="utf-8"?>
<!-- Generator: Adobe Illustrator 24.2.3, SVG Export Plug-In . SVG Version: 6.00 Build 0)  -->
<svg version="1.1" xmlns="http://www.w3.org/2000/svg" xmlns:xlink="http://www.w3.org/1999/xlink" x="0px" y="0px"
	 viewBox="0 0 500 500" style="enable-background:new 0 0 500 500;" xml:space="preserve">
<style type="text/css">
	.st0{fill:url(#SVGID_1_);}
	.st1{opacity:0.2;fill:url(#SVGID_2_);}
	.st2{opacity:0.2;fill:url(#SVGID_3_);}
	.st3{font-family:'HighHillDemoRegular';}
	.st4{font-size:72.9789px;}
</style>
<g id="BACKGROUND">
</g>
<g id="OBJECTS">
	<g>
		<g>
			<linearGradient id="SVGID_1_" gradientUnits="userSpaceOnUse" x1="137.7911" y1="351.8355" x2="137.7911" y2="148.157">
				<stop  offset="7.810207e-02" style="stop-color:#EF7820"/>
				<stop  offset="0.6649" style="stop-color:#C61A1A"/>
			</linearGradient>
			<path class="st0" d="M201.2,202.1c-0.8-0.2-1.6-0.4-2.4-0.6c0,0-13.6-3.2-25.7-0.8c0,0,8.7-5.4,25.2-4.5
				c-2.9-21.1-17.8-39.6-39.6-45.9c-21.8-6.3-44.2,1.3-58,17.5c14.6,7.6,19.3,16.6,19.3,16.6c-9.1-8.1-22.2-12.3-22.5-12.4
				c0,0,0,0,0,0.1c-0.8-0.3-1.6-0.6-2.4-0.8c-19.8-5.7-40.4,5.6-46.2,25.4c-5.7,19.8,5.6,40.4,25.4,46.2c3,0.9,6,1.3,9,1.4
				l-23.2,80.1c10.7,9.2,42.1,31.6,88.6,26.7l23.5-81c2.6,1.5,5.3,2.7,8.3,3.6c19.8,5.7,40.4-5.6,46.2-25.4
				C232.4,228.5,221,207.9,201.2,202.1z M154.7,223.1c0.1-0.4,0.6-0.7,1-0.5l0.1,0c0.4,0.1,0.7,0.6,0.5,1c-0.1,0.4-0.6,0.7-1,0.5
				l-0.1,0C154.8,224,154.6,223.5,154.7,223.1z M122.6,213.8c0.1-0.4,0.6-0.7,1-0.5l29.6,8.6c0.4,0.1,0.7,0.6,0.5,1
				c-0.1,0.4-0.6,0.7-1,0.5l-29.6-8.6C122.7,214.7,122.5,214.2,122.6,213.8z M110.8,336c-0.9,3-4,4.7-7,3.9c-3-0.9-4.7-4-3.9-7
				c0.9-3,4-4.7,7-3.9C109.9,329.8,111.7,333,110.8,336z M141.2,333.8l-65.8-19.1l29.1-100.3l65.8,19.1L141.2,333.8z"/>
			<linearGradient id="SVGID_2_" gradientUnits="userSpaceOnUse" x1="140.4183" y1="351.8355" x2="140.4183" y2="225.6561">
				<stop  offset="7.810207e-02" style="stop-color:#EF7820"/>
				<stop  offset="0.6649" style="stop-color:#C61A1A"/>
			</linearGradient>
			<path class="st1" d="M74.3,242.9c3,0.9,6,1.3,9,1.4l-23.2,80.1c10.7,9.2,42.1,31.6,88.6,26.7l23.5-81c2.6,1.5,5.3,2.7,8.3,3.6
				c19.8,5.7,40.4-5.6,46.2-25.4c0.1-0.4,0.2-0.7,0.3-1.1c-9,2.7-18.2,4.4-27.6,5c-11.4,0.7-22.7-0.2-33.8-2.2l-24.3,83.8
				l-65.8-19.1l24.7-85.1c-3.2-1.1-6.4-2-9.7-2.6c-8.6-1.7-17.5-1.6-26.2-0.6c-3,0.3-6.5,0.9-10.3,1.7
				C58.6,235,65.7,240.4,74.3,242.9z M99.9,332.8c0.9-3,4-4.7,7-3.9c3,0.9,4.7,4,3.9,7c-0.9,3-4,4.7-7,3.9
				C100.7,339,99,335.9,99.9,332.8z"/>
			<linearGradient id="SVGID_3_" gradientUnits="userSpaceOnUse" x1="143.6501" y1="351.8355" x2="143.6501" y2="232.3892">
				<stop  offset="7.810207e-02" style="stop-color:#EF7820"/>
				<stop  offset="0.6649" style="stop-color:#C61A1A"/>
			</linearGradient>
			<path class="st2" d="M148.7,351.1l23.5-81c2.6,1.5,5.3,2.7,8.3,3.6c19.8,5.7,40.4-5.6,46.2-25.4c0.2-0.8,0.4-1.6,0.6-2.4
				c-16-11.4-37.9-15.6-57.3-12.4l0.3,0.1l-29.1,100.3l-65.8-19.1l13.2-45.6c-4.3,0.8-8.7,1.4-13,1.8l-15.5,53.5
				C70.8,333.6,102.2,356.1,148.7,351.1z M99.9,332.8c0.9-3,4-4.7,7-3.9c3,0.9,4.7,4,3.9,7c-0.9,3-4,4.7-7,3.9
				C100.7,339,99,335.9,99.9,332.8z"/>
		</g>
		<g>
			<g>
				<text transform="matrix(1 0 0 1 233.4326 311.0342)" class="st3 st4">Webchef</text>
			</g>
		</g>
	</g>
</g>
</svg>
